<?xml version="1.0" encoding="UTF-8" standalone="no"?>
<svg
   version="1.1"
   width="256"
   height="256"
   id="svg24"
   xml:space="preserve"
   sodipodi:docname="wove-mark.svg"
   inkscape:version="1.2.2 (b0a8486541, 2022-12-01)"
   inkscape:export-filename="wove-mark.png"
   inkscape:export-xdpi="192"
   inkscape:export-ydpi="192"
   xmlns:inkscape="http://www.inkscape.org/namespaces/inkscape"
   xmlns:sodipodi="http://sodipodi.sourceforge.net/DTD/sodipodi-0.dtd"
   xmlns:xlink="http://www.w3.org/1999/xlink"
   xmlns="http://www.w3.org/2000/svg"
   xmlns:svg="http://www.w3.org/2000/svg"><sodipodi:namedview
     id="namedview12"
     pagecolor="#ffffff"
     bordercolor="#000000"
     borderopacity="0.25"
     inkscape:showpageshadow="2"
     inkscape:pageopacity="0.0"
     inkscape:pagecheckerboard="0"
     inkscape:deskcolor="#d1d1d1"
     showgrid="false"
     inkscape:zoom="1.2207031"
     inkscape:cx="209.7152"
     inkscape:cy="106.9056"
     inkscape:window-width="1920"
     inkscape:window-height="1032"
     inkscape:window-x="0"
     inkscape:window-y="25"
     inkscape:window-maximized="1"
     inkscape:current-layer="svg24" /><defs
     id="defs28"><linearGradient
       id="linearGradient3215"><stop
         style="stop-color:#25005c;stop-opacity:1;"
         offset="0"
         id="stop3211" /><stop
         style="stop-color:#9559ff;stop-opacity:1;"
         offset="1"
         id="stop3213" /></linearGradient><linearGradient
       xlink:href="#linearGradient3215"
       id="linearGradient3217"
       x1="326.56177"
       y1="487.03934"
       x2="182.86821"
       y2="55.907261"
       gradientUnits="userSpaceOnUse"
       gradientTransform="matrix(0.5310865,0,0,0.5310865,-10.60023,-9.4855486)" /></defs><path
     style="fill:url(#linearGradient3217);fill-opacity:1;stroke:none;stroke-width:3.41647;stroke-linecap:round;stroke-linejoin:round;stroke-dasharray:none;stroke-opacity:1"
     d="M 64.019615,7.1980115 C 74.079234,0.88694863 87.69284,6.0979966 91.617029,17.061285 c 2.306823,6.446237 1.536775,13.931732 1.576368,20.660872 l 0.215485,36.589842 c 0.03652,6.231328 0.168731,12.471452 0.09236,18.702604 -0.02863,2.365835 0.217505,5.794141 -1.955476,7.373127 -2.158566,1.56869 -5.682121,1.18098 -8.191826,1.20981 -6.512776,0.075 -13.038213,0.16961 -19.551395,0.10359 -2.56579,-0.026 -6.348718,0.26414 -7.921226,-2.256906 -1.300631,-2.084857 -1.043648,-5.120029 -1.078741,-7.468445 -0.07684,-5.101875 -0.06819,-10.2064 -0.09824,-15.308537 l -0.25541,-43.397098 c -0.05554,-9.999313 0.138003,-20.15431 9.570783,-26.0722063 m -17.099014,48.2412303 0.427971,0.422947 c 0.06651,11.267284 1.484031,23.476365 -0.04196,34.643505 -0.721189,5.275082 -6.785661,9.225168 -3.24699,14.92873 2.809724,4.52884 10.245059,3.53495 14.739219,3.50721 13.707142,-0.0844 27.990394,0.84526 41.617803,-0.63268 2.68821,12.07244 1.00379,25.95081 1.07643,38.28669 -10.516617,1.14393 -21.337016,0.55112 -31.907248,0.61338 -17.561429,0.10363 -35.207479,1.51394 -49.34783,-10.84335 C -1.0978643,117.72095 -1.3222293,84.21435 20.746856,65.9487 28.337111,59.666619 37.291469,56.741028 46.920672,55.439168 M 199.08419,100.92024 c -8.46561,-0.55391 -17.05008,0.0892 -25.53165,0.14643 -2.9642,0.0202 -8.02353,0.82289 -10.36365,-1.489846 -2.7454,-2.713267 -1.60973,-9.420375 -1.63066,-12.901932 -0.0615,-10.208981 -0.0671,-20.419565 -0.18546,-30.628217 -0.0432,-3.716727 0.40843,-9.040824 -2.84662,-11.661338 -5.5597,-4.475203 -10.1653,2.061309 -15.37258,2.951011 -4.0452,0.691404 -8.36964,0.352219 -12.45919,0.376313 l -22.12411,0.130329 c -0.32457,-34.825561 41.91821,-55.202532 70.15879,-36.750072 10.90885,7.127866 18.41243,18.529976 20.60423,31.367485 1.70653,9.995279 0.8048,20.687464 0.86446,30.797187 0.0517,8.770488 1.68848,19.252282 -1.11356,27.66263 m -44.72125,-7.82076 -0.42295,0.427969 -52.75745,0.310685 c -0.9325,-8.572582 -0.53269,-17.335945 -0.57788,-25.950333 -0.0158,-3.132267 -0.828026,-8.031122 1.10204,-10.754495 2.05461,-2.898964 7.69161,-2.056947 10.73621,-2.079139 l 28.93024,-0.170714 c 3.19738,-0.01632 9.41244,-1.076988 11.61043,1.94797 1.96202,2.700436 1.20847,7.608523 1.22863,10.740774 l 0.15083,25.527318 M 48.200505,200.51966 c -6.878549,0.74807 -13.907879,0.60268 -20.820663,0.5234 -4.808226,-0.0551 -9.650079,-0.47328 -13.773175,-3.18358 -9.932504,-6.52706 -12.4357699,-20.5748 -3.7778525,-29.34044 5.7086425,-5.78053 13.4890315,-6.12547 21.1298205,-6.18875 3.896338,-0.0321 13.205124,-1.73543 15.862496,1.92124 1.96204,2.70043 1.208486,7.60852 1.22863,10.74077 l 0.150751,25.52736 m 7.387763,-45.99514 26.377892,-0.15434 c 2.967188,-0.0142 8.02519,-0.82288 10.368305,1.49281 2.745432,2.71326 1.609763,9.4204 1.630674,12.90197 0.06146,10.20897 0.06708,20.41954 0.185885,30.62778 0.04372,3.74352 -0.389149,8.98967 2.883419,11.6241 5.56013,4.47563 10.09387,-2.05322 15.32725,-2.92138 11.0474,-1.8325 23.39834,-0.43264 34.59141,-0.49855 l 0.42799,0.42295 c -2.54741,26.00448 -24.5404,46.15571 -51.244554,43.29081 -5.001653,-0.53645 -9.91199,-2.03159 -14.433283,-4.22683 -5.121231,-2.4861 -9.797321,-5.96793 -13.667774,-10.13821 -13.5361,-14.58823 -12.580038,-32.72179 -12.68978,-51.35962 -0.06061,-10.29111 -0.750548,-20.80913 0.242566,-31.06135 M 110.48159,102.1825 c 2.15858,-1.56873 5.68212,-1.18101 8.19184,-1.20982 6.51193,-0.075 13.03813,-0.18146 19.54929,-0.10166 2.58792,0.0316 6.28775,-0.2068 7.69364,2.48714 1.24885,2.39317 0.90531,5.75904 1.00709,8.373 0.24373,6.27438 -0.10448,12.545 0.032,18.82255 0.11892,5.4565 0.30394,10.86493 0.15029,16.32513 -0.0563,1.99754 0.13251,4.73225 -1.54639,6.17857 -3.19615,2.7529 -10.75832,1.42614 -14.66152,1.4491 -4.53074,0.027 -9.06669,0.11764 -13.59706,0.0622 -2.07011,-0.0249 -4.73425,0.15415 -6.51721,-1.10954 -2.38456,-1.69 -2.01512,-5.64446 -2.05609,-8.19156 -0.11957,-7.36984 -0.0957,-14.74438 -0.13924,-22.1151 -0.0298,-5.07236 -0.2506,-10.18788 -0.0298,-15.25704 0.0859,-1.97174 0.16206,-4.43358 1.92313,-5.71315 m 97.26427,-47.690139 c 8.5468,-0.05034 17.52645,-0.884631 26.01521,0.212506 14.37565,1.85838 22.85141,19.122154 13.18274,30.9127 -6.11114,7.452117 -15.20253,7.445813 -24.07914,7.503841 -3.64413,0.02353 -10.90298,1.361059 -13.77078,-1.473181 -2.34315,-2.315689 -1.59309,-7.38287 -1.6148,-10.350021 -0.065,-8.89224 -0.59133,-17.945991 0.26677,-26.805845 m 0.85685,145.508439 -0.42798,-0.42294 c -0.0665,-11.29265 -1.42728,-23.44654 0.0338,-34.64733 0.69127,-5.30044 6.90761,-9.25439 3.3342,-15.00497 -2.83889,-4.5678 -10.6532,-3.48233 -15.16956,-3.46214 l -41.69454,0.24468 c -0.93248,-8.57259 -0.53266,-17.33596 -0.57788,-25.95034 -0.0159,-3.13229 -0.82801,-8.03114 1.10207,-10.7545 1.81912,-2.56656 6.31745,-2.03438 9.03776,-2.06572 8.50728,-0.0976 17.01596,-0.10447 25.52352,-0.15451 14.28622,-0.0841 28.92387,-0.45708 41.24859,7.91055 25.74907,17.48271 27.4632,55.97412 2.29436,74.88337 -7.37919,5.54404 -15.64507,8.19918 -24.70436,9.42389 m -54.26184,-38.39899 0.42797,0.42298 0.14978,25.52735 c 0.0159,3.13228 0.82802,8.03111 -1.10209,10.75449 -2.35883,3.32752 -9.79845,2.07362 -13.28809,2.09501 l -39.14266,0.23052 c -0.96216,-8.84898 -0.54281,-17.90858 -0.58244,-26.80084 -0.014,-2.96722 -0.822879,-8.02524 1.49281,-10.36833 2.8355,-2.86911 10.10752,-1.61421 13.75289,-1.6357 l 38.29172,-0.22548 m 9.63677,-6.54956 c 2.15859,-1.56866 5.68214,-1.18096 8.19184,-1.20978 6.51279,-0.075 13.03822,-0.16944 19.55139,-0.10363 2.56578,0.0258 6.34871,-0.26417 7.92123,2.25691 1.30063,2.08484 1.04365,5.12003 1.07874,7.46843 0.0767,5.10188 0.0682,10.20643 0.0981,15.30857 l 0.25055,42.54632 c 0.0586,10.25282 0.24033,20.15093 -9.04011,26.59667 -9.85037,6.841 -23.48326,1.68617 -27.81751,-8.99034 -2.66125,-6.55626 -1.84133,-14.28437 -1.8821,-21.2075 l -0.2205,-37.44079 c -0.035,-5.94798 -0.16047,-11.90394 -0.0872,-17.85169 0.0286,-2.36583 -0.21748,-5.79414 1.95547,-7.37313 z"
     id="path3186" /></svg>
