<?xml version="1.0" encoding="UTF-8" standalone="no"?>
<svg
   version="1.1"
   width="512"
   height="256"
   id="svg24"
   xml:space="preserve"
   xmlns:xlink="http://www.w3.org/1999/xlink"
   xmlns="http://www.w3.org/2000/svg"
   xmlns:svg="http://www.w3.org/2000/svg"><defs
     id="defs28"><linearGradient
       id="linearGradient3215"><stop
         style="stop-color:#25005c;stop-opacity:1;"
         offset="0"
         id="stop3211" /><stop
         style="stop-color:#9559ff;stop-opacity:1;"
         offset="1"
         id="stop3213" /></linearGradient><linearGradient
       xlink:href="#linearGradient3215"
       id="linearGradient3217"
       x1="326.56177"
       y1="487.03934"
       x2="182.86821"
       y2="55.907261"
       gradientUnits="userSpaceOnUse"
       gradientTransform="matrix(0.30248007,0,0,0.30248007,45.450777,52.717865)" /></defs><g
     id="g4477"
     transform="translate(0.71349058,-2.9453251)"><path
       style="fill:url(#linearGradient3217);fill-opacity:1;stroke:none;stroke-width:1.94585;stroke-linecap:round;stroke-linejoin:round;stroke-dasharray:none;stroke-opacity:1"
       d="m 87.950476,62.219979 c 5.729451,-3.594463 13.483074,-0.626513 15.718094,5.617623 1.31385,3.671451 0.87527,7.934812 0.89782,11.76739 l 0.12273,20.839728 c 0.0208,3.54905 0.0961,7.10311 0.0526,10.65206 -0.0163,1.34746 0.12388,3.30005 -1.11374,4.19936 -1.22941,0.89345 -3.23625,0.67263 -4.665651,0.68905 -3.709348,0.0427 -7.425908,0.0966 -11.135488,0.059 -1.461345,-0.0148 -3.615909,0.15044 -4.51153,-1.28542 -0.740774,-1.18743 -0.59441,-2.91611 -0.614397,-4.25365 -0.04377,-2.90577 -0.03884,-5.81305 -0.05595,-8.71897 l -0.145465,-24.7168 c -0.03163,-5.695104 0.0786,-11.478878 5.451035,-14.849413 m -9.738736,27.475771 0.243751,0.240889 c 0.03788,6.417276 0.845229,13.370953 -0.0239,19.731193 -0.410752,3.00442 -3.864769,5.25419 -1.849321,8.50265 1.600277,2.5794 5.835068,2.01333 8.394715,1.99753 7.806897,-0.0481 15.941917,0.48142 23.703397,-0.36034 1.53107,6.87585 0.57171,14.78027 0.61308,21.80617 -5.98973,0.65152 -12.152483,0.31389 -18.172754,0.34935 -10.002106,0.059 -20.052406,0.86226 -28.106037,-6.17583 -12.151884,-10.61905 -12.279671,-29.70272 0.289767,-40.105913 4.323026,-3.577956 9.422976,-5.244226 14.907285,-5.985699 m 86.664659,25.903722 c -4.82158,-0.31548 -9.71086,0.0508 -14.54154,0.0834 -1.68825,0.0115 -4.56979,0.46868 -5.90261,-0.84854 -1.56364,-1.54534 -0.91682,-5.36537 -0.92874,-7.34829 -0.035,-5.81452 -0.0382,-11.629954 -0.10563,-17.444287 -0.0246,-2.11686 0.23262,-5.149197 -1.62129,-6.64171 -3.16652,-2.548849 -5.78964,1.174018 -8.75545,1.680747 -2.30394,0.393789 -4.76692,0.200606 -7.09612,0.214329 l -12.60078,0.07423 c -0.18486,-19.834884 23.8745,-31.440578 39.95891,-20.930988 6.21313,4.059673 10.48679,10.55374 11.73513,17.865337 0.97195,5.692807 0.45837,11.782536 0.49235,17.540524 0.0294,4.995228 0.96167,10.965128 -0.63423,15.755238 m -25.47096,-4.45431 -0.2409,0.24375 -30.04798,0.17695 c -0.5311,-4.88251 -0.30339,-9.87368 -0.32913,-14.78 -0.009,-1.783982 -0.4716,-4.574122 0.62767,-6.125218 1.1702,-1.651104 4.38075,-1.171533 6.1148,-1.184173 l 16.47721,-0.09723 c 1.82106,-0.0093 5.36085,-0.613398 6.61271,1.109466 1.11747,1.538032 0.68829,4.33343 0.69977,6.117403 l 0.0859,14.539072 m -60.464821,61.18111 c -3.917675,0.42606 -7.921226,0.34325 -11.858399,0.2981 -2.738523,-0.0314 -5.496198,-0.26956 -7.844506,-1.81321 -5.657053,-3.71748 -7.082787,-11.71837 -2.151674,-16.71083 3.251355,-3.2923 7.682672,-3.48876 12.03448,-3.5248 2.219157,-0.0183 7.520972,-0.98842 9.034477,1.09424 1.117479,1.53803 0.688293,4.33343 0.699766,6.1174 l 0.08586,14.5391 m 4.207697,-26.19652 15.023516,-0.0879 c 1.689961,-0.008 4.570744,-0.46867 5.905264,0.85023 1.56366,1.54534 0.91684,5.36538 0.92875,7.34831 0.035,5.81452 0.0382,11.62994 0.10587,17.44404 0.0249,2.13212 -0.22164,5.12006 1.64225,6.6205 3.16677,2.54909 5.74896,-1.16941 8.72963,-1.66387 6.29204,-1.0437 13.32651,-0.24641 19.70152,-0.28395 l 0.24376,0.24089 c -1.45087,14.81084 -13.97697,26.28796 -29.18631,24.65626 -2.84869,-0.30553 -5.64537,-1.15709 -8.220471,-2.40739 -2.916794,-1.41595 -5.580059,-3.39903 -7.784474,-5.77421 -7.70948,-8.30872 -7.164955,-18.63668 -7.227459,-29.25185 -0.03452,-5.8613 -0.427474,-11.85183 0.138154,-17.69098 m 31.26446,-29.81145 c 1.22942,-0.89347 3.23625,-0.67264 4.66566,-0.68905 3.70887,-0.0427 7.42586,-0.10335 11.13429,-0.0579 1.47395,0.018 3.58119,-0.11778 4.38191,1.41655 0.71128,1.36303 0.51562,3.28006 0.57359,4.76884 0.13881,3.57357 -0.0595,7.145 0.0182,10.72037 0.0677,3.10775 0.17311,6.18812 0.0856,9.29797 -0.0321,1.1377 0.0755,2.69525 -0.88075,3.519 -1.82036,1.56792 -6.12739,0.81226 -8.35046,0.82534 -2.58048,0.0154 -5.16393,0.067 -7.7442,0.0354 -1.17903,-0.0142 -2.69639,0.0878 -3.71187,-0.63194 -1.35813,-0.96253 -1.14771,-3.21479 -1.17105,-4.66549 -0.0681,-4.19749 -0.0545,-8.39766 -0.0793,-12.59565 -0.017,-2.88896 -0.14273,-5.8025 -0.017,-8.68964 0.0489,-1.123 0.0923,-2.52514 1.09532,-3.25392 m 55.39684,-27.161907 c 4.86782,-0.02867 9.98218,-0.503841 14.81695,0.121033 8.18764,1.05844 13.01501,10.891014 7.50822,17.606314 -3.4806,4.24435 -8.65859,4.24076 -13.71426,4.27381 -2.07551,0.0134 -6.20979,0.77519 -7.84314,-0.83905 -1.33454,-1.3189 -0.90734,-4.20491 -0.91971,-5.89485 -0.037,-5.064571 -0.33679,-10.221131 0.15194,-15.267257 m 0.48802,82.874267 -0.24376,-0.24089 c -0.0379,-6.43172 -0.8129,-13.35396 0.0193,-19.73337 0.39371,-3.01886 3.93423,-5.27083 1.89899,-8.54607 -1.61689,-2.60159 -6.06753,-1.98336 -8.63981,-1.97186 l -23.74711,0.13935 c -0.5311,-4.88251 -0.30338,-9.87368 -0.32913,-14.78 -0.009,-1.78399 -0.4716,-4.57413 0.62768,-6.12522 1.03608,-1.46178 3.5981,-1.15868 5.14745,-1.17653 4.84532,-0.0556 9.69143,-0.0595 14.53691,-0.088 8.13671,-0.0479 16.47358,-0.26033 23.49312,4.50545 14.66537,9.95727 15.64165,31.88004 1.30675,42.64979 -4.20281,3.1576 -8.91064,4.66984 -14.07036,5.36737 m -30.9048,-21.87013 0.24375,0.24091 0.0853,14.53909 c 0.009,1.78399 0.4716,4.57412 -0.62769,6.12522 -1.34347,1.89519 -5.5807,1.18103 -7.56823,1.19321 l -22.29368,0.13129 c -0.548,-5.03993 -0.30916,-10.19982 -0.33173,-15.2644 -0.008,-1.68998 -0.46867,-4.57077 0.85023,-5.90528 1.61496,-1.6341 5.75673,-0.91938 7.83295,-0.93162 l 21.80903,-0.12842 m 5.48862,-3.73029 c 1.22943,-0.89344 3.23626,-0.67262 4.66566,-0.68904 3.70936,-0.0427 7.42591,-0.0965 11.13549,-0.059 1.46133,0.0147 3.6159,-0.15046 4.51153,1.28542 0.74077,1.18742 0.59441,2.91611 0.61439,4.25364 0.0437,2.90578 0.0389,5.81307 0.0559,8.71899 l 0.1427,24.23224 c 0.0334,5.83949 0.13688,11.47695 -5.14879,15.14812 -5.61027,3.89629 -13.37488,0.96036 -15.84345,-5.12044 -1.51571,-3.73412 -1.04873,-8.13566 -1.07195,-12.07873 l -0.12558,-21.32438 c -0.0199,-3.38767 -0.0914,-6.77988 -0.0497,-10.16742 0.0163,-1.34746 -0.12387,-3.30005 1.11374,-4.19936 z"
       id="path3186" /><text
       xml:space="preserve"
       style="font-weight:bold;font-size:88.6821px;font-family:'Liberation Serif';-inkscape-font-specification:'Liberation Serif Bold';text-align:center;letter-spacing:7.28685px;text-anchor:middle;fill:#01002b;fill-opacity:1;stroke:none;stroke-width:6.68536;stroke-linecap:round;stroke-linejoin:round;stroke-dasharray:none;stroke-opacity:1"
       x="353.27151"
       y="166.62059"
       id="text3316"
       transform="scale(0.97334523,1.0273847)"><tspan
         id="tspan3314"
         x="356.91495"
         y="166.62059"
         style="font-style:normal;font-variant:normal;font-weight:bold;font-stretch:normal;font-size:88.6821px;font-family:Ubuntu;-inkscape-font-specification:'Ubuntu Bold';fill:#01002b;fill-opacity:1;stroke:none;stroke-width:6.68536;stroke-opacity:1"
         dx="0"
         dy="0">wove</tspan></text></g></svg>
